<svg xmlns="http://www.w3.org/2000/svg" viewBox="0 0 511.997 511.997"><path d="M497 480.999h-60c-41.353 0-75-33.647-75-75v-120a14.998 14.998 0 0 1 10.649-14.355c6.284-1.904 13.169.542 16.831 6.035l120 180c3.062 4.6 3.354 10.518.747 15.396s-7.69 7.924-13.227 7.924z" fill="#ff873c"/><path d="M239.7 192.998c.901 4.501-.3 9.001-2.999 12.601-3.001 3.3-7.2 5.4-11.7 5.4h-12.299L195 122.799l-5.099-25.501c-1.8-9.3-7.2-18.3-15-25.199-8.101-7.2-18.301-11.1-29.101-11.1H75c-8.401 0-15 6.599-15 15v190.499l-30-25.499v-165c0-24.901 20.099-45 45-45h70.8c18.6 0 36 6.899 49.2 18.9 12.001 10.499 21 24.899 24.3 41.4l20.4 101.699z" fill="#fe8821"/><path d="M239.7 192.998c.901 4.501-.3 9.001-2.999 12.601-3.001 3.3-7.2 5.4-11.7 5.4h-12.299L195 122.799v-72.9c12.001 10.499 21 24.899 24.3 41.4l20.4 101.699z" fill="#e5741a"/><path d="M285 210.999c-8.291 0-15-6.709-15-15v-60c0-8.291 6.709-15 15-15s15 6.709 15 15v60c0 8.291-6.709 15-15 15z" fill="#3c3a41"/><path d="M215.4 225.098L60 294.398v-27.9l5.4 4.501h21c17.401 0 32.699-9.6 40.499-24.901l13.2-27.001c2.401-5.099 7.8-8.099 13.5-8.099H212.7l2.7 14.1z" fill="#c5c9f7"/><path d="M285 180.999H153.6c-17.401 0-32.699 9.6-40.499 24.899l-13.2 27.001c-2.401 5.099-7.8 8.101-13.5 8.101H30v113.099c0 5.402 2.999 10.201 7.5 12.902 2.401 1.5 4.799 2.098 7.5 2.098s5.099-.599 7.5-2.098c6.599-3.9 14.7-6 22.5-6h240c8.401 0 15-6.601 15-15v-120c0-24.903-20.099-45.002-45-45.002z" fill="#fea832"/><path d="M315 360.999H195v-180h90c24.901 0 45 20.099 45 45v120c0 8.399-6.599 15-15 15z" fill="#ff873c"/><path d="M315 330.999H75c-13.2 0-26.1 3.6-37.5 10.199-23.401 13.5-37.5 37.8-37.5 64.801 0 41.4 33.6 75 75 75h240c41.4 0 75-33.6 75-75s-33.6-75-75-75z" fill="#555a66"/><path d="M390 405.999c0 41.4-33.6 75-75 75H195v-150h120c41.4 0 75 33.6 75 75z" fill="#2b292c"/><path d="M255 300.999c-8.291 0-15-6.709-15-15v-30c0-8.291 6.709-15 15-15s15 6.709 15 15v30c0 8.291-6.709 15-15 15z" fill="#994c10"/><path d="M210 255.999v30c0 8.399-6.599 15-15 15s-15-6.601-15-15v-30c0-8.401 6.599-15 15-15s15 6.599 15 15z" fill="#bf6015"/><path fill="#707789" d="M75 361h240v90H75z"/><path d="M195 300.999v-60c8.401 0 15 6.599 15 15v30c0 8.399-6.599 15-15 15z" fill="#994c10"/><g fill="#555a66"><path d="M195 361h120v90H195z"/><path d="M390 405.999c0 8.399-6.599 15-15 15H15c-8.401 0-15-6.601-15-15 0-8.401 6.599-15 15-15h360c8.401 0 15 6.599 15 15z"/></g><path d="M390 405.999c0 8.399-6.599 15-15 15H195v-30h180c8.401 0 15 6.599 15 15z" fill="#2b292c"/><path d="M75 360.999c-7.808 0-15.762 2.153-22.412 6.05C38.438 375.296 30 389.856 30 405.999c0 24.814 20.186 45 45 45s45-20.186 45-45-20.186-45-45-45z" fill="#cdd2e1"/><path d="M75 420.999c-8.271 0-15-6.729-15-15 0-5.432 2.804-10.181 7.694-13.031 2.127-1.246 4.836-1.969 7.306-1.969 8.271 0 15 6.729 15 15s-6.729 15-15 15z" fill="#555a66"/><path d="M315 360.999c-24.814 0-45 20.186-45 45s20.186 45 45 45 45-20.186 45-45-20.186-45-45-45z" fill="#bec3d2"/><path d="M315 420.999c-8.271 0-15-6.729-15-15s6.729-15 15-15 15 6.729 15 15-6.729 15-15 15z" fill="#2b292c"/></svg>