<svg xmlns="http://www.w3.org/2000/svg" viewBox="0 0 512 512"><path d="M467 226H347c-8.291 0-15-6.709-15-15v-90c0-8.291 6.709-15 15-15h68.379a44.944 44.944 0 0 1 42.686 30.762l23.159 69.492a14.985 14.985 0 0 1-2.051 13.521A15.02 15.02 0 0 1 467 226z" fill="#fea832"/><path d="M362 196v-60h53.379c6.46 0 12.188 4.116 14.224 10.254L446.185 196H362z" fill="#555a66"/><path d="M512 241c0-24.814-20.186-45-45-45H347c-8.291 0-15 6.709-15 15v172.031L362 406h105c24.814 0 45-20.186 45-45v-15l-15-15 15-15v-30l-22.5-14.531L512 256v-15z" fill="#ff873c"/><path d="M422 61c0 8.399-6.599 15-15 15h-45v225c0 8.399-6.599 15-15 15H75c-3.9 0-7.8-1.5-10.499-4.501l-51.301-51C4.799 251.8 0 240.7 0 228.699V121c0-8.401 6.599-15 15-15h200.7l25.8-51.601.901-.899c2.399-4.501 7.8-7.5 12.599-7.5h152c8.401 0 15 6.599 15 15z" fill="#cdd2e1"/><path d="M422 61c0 8.399-6.599 15-15 15h-45v225c0 8.399-6.599 15-15 15h-62V46h122c8.401 0 15 6.599 15 15z" fill="#bec3d2"/><path d="M45 286c-24.901 0-45 20.099-45 45v30c0 24.899 20.099 45 45 45h317V286H45z" fill="#555a66"/><path d="M512 346h-45c-8.291 0-15-6.709-15-15s6.709-15 15-15h45v30z" fill="#fedb41"/><g fill="#9196aa"><path d="M105 256c-8.291 0-15-6.709-15-15v-60c0-8.291 6.709-15 15-15s15 6.709 15 15v60c0 8.291-6.709 15-15 15zM195 256c-8.291 0-15-6.709-15-15v-60c0-8.291 6.709-15 15-15s15 6.709 15 15v60c0 8.291-6.709 15-15 15zM300 181v60c0 8.399-6.599 15-15 15s-15-6.601-15-15v-60c0-8.401 6.599-15 15-15s15 6.599 15 15z"/></g><path d="M512 286h-75c-8.291 0-15-6.709-15-15s6.709-15 15-15h75v30z" fill="#fedb41"/><path d="M285 256v-90c8.401 0 15 6.599 15 15v60c0 8.399-6.599 15-15 15z" fill="#7e8596"/><g fill="#3c3a41"><path d="M285 286h77v120h-77z"/><path d="M392 466c-33.091 0-60-26.909-60-60s26.909-60 60-60 60 26.909 60 60-26.909 60-60 60z"/></g><path d="M392 436c-16.538 0-30-13.462-30-30s13.462-30 30-30 30 13.462 30 30-13.462 30-30 30z" fill="#bec3d2"/><path d="M120 466c-33.091 0-60-26.909-60-60s26.909-60 60-60 60 26.909 60 60-26.909 60-60 60z" fill="#555a66"/><path d="M120 436c-16.538 0-30-13.462-30-30s13.462-30 30-30 30 13.462 30 30-13.462 30-30 30z" fill="#cdd2e1"/></svg>