<svg xmlns="http://www.w3.org/2000/svg" viewBox="0 0 512 512"><path d="M186.164 368.261L51.176 503.25c-11.667 11.667-30.759 11.667-42.426 0s-11.667-30.759 0-42.426l134.988-134.988 27.154-3.395 23.971 23.971-8.699 21.849z" fill="#fe8821"/><path d="M194.863 346.411l-8.698 21.85L51.176 503.25c-11.667 11.667-30.759 11.667-42.426 0l171.476-171.476 14.637 14.637z" fill="#e5741a"/><path d="M472.543 81.883L186.164 368.261l-42.426-42.426L430.117 39.457c11.667-11.667 30.759-11.667 42.426 0s11.667 30.759 0 42.426z" fill="#555a66"/><path d="M472.543 81.883L186.164 368.261l-21.213-21.213L472.543 39.457c11.667 11.667 11.667 30.759 0 42.426z" fill="#3c3a41"/><path d="M472.543 166.736l-12.516-12.516c8.062-16.546 5.092-37.334-8.697-51.123L408.904 60.67c-13.789-13.789-34.578-16.759-51.123-8.697l-12.516-12.516c-52.608-52.608-138.309-52.61-190.919 0-4.243 4.243-5.516 10.607-3.181 16.333 2.333 5.728 7.636 9.335 13.788 9.122h35.215c28.002.001 54.304 11.031 74.245 30.972l19.729 19.729c-8.061 16.544-5.092 37.334 8.697 51.123l42.426 42.426c13.789 13.789 34.579 16.758 51.123 8.697l19.729 19.729c19.94 19.94 30.97 46.243 30.972 74.245v35.215c-.214 4.031 1.484 7.849 4.242 10.607 1.273 1.273 2.97 2.545 4.88 3.181 5.727 2.334 12.09 1.062 16.333-3.181 52.609-52.61 52.607-138.311-.001-190.919z" fill="#7e8596"/><path d="M472.543 357.655c-4.243 4.243-10.607 5.516-16.333 3.181-1.91-.636-3.607-1.908-4.88-3.181-2.758-2.758-4.455-6.576-4.242-10.607v-35.215c-.001-28.002-11.031-54.304-30.972-74.245l-19.729-19.729c-16.544 8.061-37.334 5.092-51.123-8.697l-21.213-21.213L430.117 81.883l21.213 21.213c13.789 13.789 16.759 34.578 8.697 51.123l12.516 12.516c52.608 52.609 52.61 138.31 0 190.92z" fill="#707789"/></svg>