<svg xmlns="http://www.w3.org/2000/svg" viewBox="0 0 512 512"><path d="M432.561 256.003c0 102.382-43.476 185.379-97.103 185.379s-97.103-82.997-97.103-185.379 43.475-185.38 97.102-185.38 97.104 82.997 97.104 185.38" fill="#535353"/><path d="M250.122 142.11c-12.862 31.444-20.595 70.903-20.595 113.893 0 42.982 7.733 82.45 20.595 113.894 19.023-18.75 32.371-62.685 32.371-113.894-.001-51.208-13.348-95.143-32.371-113.893" fill="#3b3d3f"/><path d="M327.089 511.647c-83.862-7-150.528-118.775-150.528-255.647 0-136.942 66.737-248.417 150.669-255.629A123.363 123.363 0 0 0 317.803 0H194.217C96.707 0 17.665 114.617 17.665 256c0 141.391 79.042 256 176.552 256h123.586c7.821 0 15.51-.812 23.066-2.242-4.546.856-9.127 1.536-13.78 1.889" fill="#535353"/><g fill="#a4a4a4"><path d="M335.457 441.382c-53.628 0-97.103-82.997-97.103-185.379s43.476-185.38 97.103-185.38 97.103 82.997 97.103 185.379-43.475 185.38-97.103 185.38m158.87-186.968C493.753 118.345 419.99 7.453 327.239.373c-83.933 7.212-150.678 118.678-150.678 255.629 0 136.863 66.666 248.638 150.528 255.647 81.284-6.109 148.012-91.922 163.743-204.57a421.518 421.518 0 0 0 3.505-51.076c-.001-.539-.01-1.051-.01-1.589"/><path d="M162.836 69.14a8.788 8.788 0 0 0 9.79 0l22.219-14.813 30.729 15.36c.282.141.591.132.883.238 3.16-4.793 6.435-9.401 9.834-13.78a8.972 8.972 0 0 0-2.816-2.251l-35.31-17.655a8.84 8.84 0 0 0-8.845.556l-21.583 14.389-21.592-14.389a8.898 8.898 0 0 0-7.318-1.148l-49.09 14.027c-5.517 5.879-10.778 12.217-15.775 18.97 1.545 1.236 3.46 1.977 5.491 1.977.803 0 1.624-.115 2.436-.335l57.865-16.534 23.082 15.388zM127.526 130.933a8.788 8.788 0 0 0 9.79 0l22.219-14.813 30.729 15.36a8.803 8.803 0 0 0 3.946.936c.759 0 1.51-.115 2.242-.309a329.84 329.84 0 0 1 4.943-13.427c-.821-1.209-1.836-2.286-3.231-2.993l-35.31-17.655a8.84 8.84 0 0 0-8.845.556l-21.583 14.389-21.592-14.389a8.788 8.788 0 0 0-9.79 0l-21.584 14.39-21.593-14.389c-.724-.486-1.518-.706-2.313-.953-2.71 4.979-5.332 10.063-7.786 15.334.124.088.185.221.309.309l26.483 17.655a8.788 8.788 0 0 0 9.79 0l21.592-14.389 21.584 14.388zM126.182 200.451a8.817 8.817 0 0 0 12.482 0l20.242-20.242 11.414 11.414c3.072 3.072 7.751 3.249 11.193.856.644-4.07 1.359-8.095 2.119-12.085-.291-.415-.459-.883-.83-1.254l-17.655-17.655a8.817 8.817 0 0 0-12.482 0l-20.242 20.242-20.242-20.242a8.817 8.817 0 0 0-12.482 0l-20.242 20.242-20.242-20.242c-1.668-1.668-4.034-2.507-6.294-2.586a8.833 8.833 0 0 0-6.259 2.657l-21.857 22.369a350.056 350.056 0 0 0-3.019 17.143c1.58 1.227 3.416 1.969 5.314 1.969 2.295 0 4.59-.892 6.321-2.657l19.624-20.092 20.171 20.162a8.817 8.817 0 0 0 12.482 0l20.242-20.242 20.242 20.243zM176.561 256.003c0-.486.018-.971.026-1.457l-39.618-23.764a8.852 8.852 0 0 0-10.787 1.324l-20.242 20.242-20.242-20.242a8.817 8.817 0 0 0-12.482 0l-21.981 21.981-29.625-14.813a8.828 8.828 0 0 0-3.487-.9c-.274 5.835-.459 11.697-.459 17.629 0 .353.018.697.018 1.05l31.347 15.678a8.788 8.788 0 0 0 10.187-1.66l20.242-20.242L99.7 271.071a8.817 8.817 0 0 0 12.482 0l21.61-21.61 38.223 22.934a8.777 8.777 0 0 0 4.537 1.262c.141 0 .282-.044.424-.053-.248-5.825-.415-11.678-.415-17.601M180.528 312.775L163.8 301.626a8.8 8.8 0 0 0-11.132 1.103l-20.242 20.242-20.242-20.242c-3.452-3.452-9.039-3.452-12.482 0L79.461 322.97l-20.242-20.242a8.828 8.828 0 0 0-7.115-2.542 8.808 8.808 0 0 0-6.471 3.884l-17.655 26.483c-1.254 1.88-1.607 4.052-1.315 6.117.088.388.177.777.274 1.165.547 1.951 1.668 3.752 3.487 4.961a8.815 8.815 0 0 0 4.89 1.483 8.821 8.821 0 0 0 7.353-3.928l11.679-17.532 18.873 18.873c3.443 3.452 9.031 3.452 12.482 0l20.242-20.242 20.242 20.242c3.443 3.452 9.031 3.452 12.482 0l21.363-21.363 20.462 13.639c1.201.794 2.534 1.165 3.884 1.315a382.546 382.546 0 0 1-3.848-22.508M206.377 405.313a309.302 309.302 0 0 1-8.227-20.383l-26.465-13.241c-3.99-1.977-8.828-.697-11.299 3.001l-11.679 17.532-18.873-18.873c-3.443-3.452-9.031-3.452-12.482 0L97.11 393.59l-20.242-20.242c-3.443-3.452-9.031-3.452-12.482 0l-17.655 17.655c-.671.671-1.095 1.465-1.51 2.269a297.226 297.226 0 0 0 5.809 12.42c2.86.653 5.959.018 8.183-2.207l11.414-11.414 20.242 20.242c3.452 3.452 9.039 3.452 12.482 0l20.242-20.242 20.242 20.242a8.848 8.848 0 0 0 6.241 2.586 8.808 8.808 0 0 0 7.345-3.928l13.338-20.003 28.337 14.168c2.382 1.192 5.004 1.113 7.281.177M207.94 475.209l26.483-17.655c.706-.468 1.201-1.112 1.721-1.73a220.218 220.218 0 0 1-9.746-13.683c-.591.23-1.218.353-1.766.724l-21.592 14.389-21.583-14.389a8.788 8.788 0 0 0-9.79 0l-21.592 14.389-21.583-14.389a8.788 8.788 0 0 0-9.79 0L92.219 460.52c-.883.591-1.562 1.351-2.154 2.154 4.043 4.29 8.201 8.377 12.491 12.164l21.036-14.018 21.592 14.389a8.788 8.788 0 0 0 9.79 0l21.583-14.389 21.592 14.389a8.79 8.79 0 0 0 9.791 0"/></g></svg>