<?xml version="1.0" encoding="iso-8859-1"?>
<!-- Generator: Adobe Illustrator 19.0.0, SVG Export Plug-In . SVG Version: 6.00 Build 0)  -->
<svg version="1.1" id="Capa_1" xmlns="http://www.w3.org/2000/svg" xmlns:xlink="http://www.w3.org/1999/xlink" x="0px" y="0px"
	 viewBox="0 0 512 512" style="enable-background:new 0 0 512 512;" xml:space="preserve">
<path style="fill:#FE8821;" d="M186.164,368.261L51.176,503.25c-11.667,11.667-30.759,11.667-42.426,0s-11.667-30.759,0-42.426
	l134.988-134.988l27.154-3.395l23.971,23.971L186.164,368.261z"/>
<path style="fill:#E5741A;" d="M194.863,346.411l-8.698,21.85L51.176,503.25c-11.667,11.667-30.759,11.667-42.426,0l171.476-171.476
	L194.863,346.411z"/>
<path style="fill:#555A66;" d="M472.543,81.883L186.164,368.261l-42.426-42.426L430.117,39.457
	c11.667-11.667,30.759-11.667,42.426,0S484.21,70.216,472.543,81.883z"/>
<path style="fill:#3C3A41;" d="M472.543,81.883L186.164,368.261l-21.213-21.213L472.543,39.457
	C484.21,51.124,484.21,70.216,472.543,81.883z"/>
<path style="fill:#7E8596;" d="M472.543,166.736l-12.516-12.516c8.062-16.546,5.092-37.334-8.697-51.123L408.904,60.67
	c-13.789-13.789-34.578-16.759-51.123-8.697l-12.516-12.516c-52.608-52.608-138.309-52.61-190.919,0
	c-4.243,4.243-5.516,10.607-3.181,16.333c2.333,5.728,7.636,9.335,13.788,9.122h35.215c28.002,0.001,54.304,11.031,74.245,30.972
	l19.729,19.729c-8.061,16.544-5.092,37.334,8.697,51.123l42.426,42.426c13.789,13.789,34.579,16.758,51.123,8.697l19.729,19.729
	c19.94,19.94,30.97,46.243,30.972,74.245v35.215c-0.214,4.031,1.484,7.849,4.242,10.607c1.273,1.273,2.97,2.545,4.88,3.181
	c5.727,2.334,12.09,1.062,16.333-3.181C525.153,305.045,525.151,219.344,472.543,166.736z"/>
<path style="fill:#707789;" d="M472.543,357.655c-4.243,4.243-10.607,5.516-16.333,3.181c-1.91-0.636-3.607-1.908-4.88-3.181
	c-2.758-2.758-4.455-6.576-4.242-10.607v-35.215c-0.001-28.002-11.031-54.304-30.972-74.245l-19.729-19.729
	c-16.544,8.061-37.334,5.092-51.123-8.697l-21.213-21.213L430.117,81.883l21.213,21.213c13.789,13.789,16.759,34.578,8.697,51.123
	l12.516,12.516C525.151,219.344,525.153,305.045,472.543,357.655z"/>
<g>
</g>
<g>
</g>
<g>
</g>
<g>
</g>
<g>
</g>
<g>
</g>
<g>
</g>
<g>
</g>
<g>
</g>
<g>
</g>
<g>
</g>
<g>
</g>
<g>
</g>
<g>
</g>
<g>
</g>
</svg>
