<svg xmlns="http://www.w3.org/2000/svg" viewBox="0 0 512 512"><path d="M329.5 159.399l-46.8-93.6C271.601 44.2 250 31 226 31s-45.601 13.2-57.001 35.099l-46.5 93.3c-2.1 4.501-2.1 10.201.601 14.401 2.999 4.499 7.8 7.2 12.9 7.2h180c5.099 0 9.901-2.701 12.9-7.2 2.701-4.2 2.701-9.9.6-14.401z" fill="#9196aa"/><path d="M391 181h-75a15.006 15.006 0 0 1-13.418-8.291L265.99 99.511a15.005 15.005 0 0 1 2.021-16.465C280.009 69.042 297.499 61 316 61c23.906 0 45.688 13.33 56.821 34.79l31.611 63.53a15.013 15.013 0 0 1-.674 14.575A14.99 14.99 0 0 1 391 181z" fill="#707789"/><path d="M451.399 169.6L440.9 211l-50.099 31.199H166L115.3 211l-21.899-58.801C94.9 151.599 96.7 151 98.5 151H437c4.501 0 9 2.1 12.001 5.7 2.699 3.9 3.6 8.699 2.398 12.9z" fill="#fea832"/><path d="M316 181h-90V31c24 0 45.601 13.2 56.7 34.799l46.8 93.6c2.1 4.501 2.1 10.201-.601 14.401-2.998 4.499-7.8 7.2-12.899 7.2z" fill="#7e8596"/><path d="M451.399 169.6L440.9 211l-50.099 31.199H226V151h211c4.501 0 9 2.1 12.001 5.7 2.699 3.9 3.6 8.699 2.398 12.9z" fill="#ff873c"/><path d="M440.9 211c-10.201 38.699-1.8 6.599-47.701 185.4L226 359.5 166 346c-46.199-123.3-36.301-96.601-50.7-135h325.6z" fill="#fe8821"/><path d="M440.9 211c-10.201 38.699-1.8 6.599-47.701 185.4L226 359.5V211h214.9z" fill="#e5741a"/><path d="M437 481c-41.353 0-75-33.647-75-75 0-6.372.806-12.7 2.388-18.809C372.928 354.115 402.796 331 437 331c41.353 0 75 33.647 75 75s-33.647 75-75 75z" fill="#2b292c"/><path d="M437 451c-24.814 0-45-20.186-45-45 0-3.823.483-7.617 1.436-11.294C398.563 374.857 416.478 361 437 361c24.814 0 45 20.186 45 45s-20.186 45-45 45z" fill="#cdd2e1"/><path d="M440.3 391.3L226 343.9l-48.9-10.8-79.799-213.001C90.7 102.7 73.9 91 55.3 91H15c-8.401 0-15 6.599-15 15 0 8.399 6.599 15 15 15h40.3c6 0 11.7 3.9 13.801 9.6L151 348.699V428.8c0 28.799 23.401 52.2 52.2 52.2 8.101 0 15.901-1.8 22.8-5.4 10.201-4.801 18.3-12.9 23.699-23.401L282.1 387.1l151.6 33.6c1.199.3 2.1.3 3.3.3 6.899 0 13.2-4.801 14.7-11.7 1.8-8.101-3.3-16.2-11.4-18zM226 432.1l-3.3 6.599c-3.6 7.5-11.1 12.301-19.501 12.301a22.151 22.151 0 0 1-22.2-22.2v-64.2l45 10.199 26.1 5.7L226 432.1z" fill="#555a66"/><path d="M451.7 409.3c-1.5 6.899-7.8 11.7-14.7 11.7-1.199 0-2.1 0-3.3-.3l-151.6-33.6-32.401 65.099c-5.4 10.501-13.499 18.6-23.699 23.401v-43.5l26.1-51.601-26.1-5.7V343.9l214.3 47.4c8.1 1.8 13.2 9.899 11.4 18z" fill="#3c3a41"/></svg>