<?xml version="1.0" encoding="iso-8859-1"?>
<!-- Generator: Adobe Illustrator 19.0.0, SVG Export Plug-In . SVG Version: 6.00 Build 0)  -->
<svg version="1.1" id="Capa_1" xmlns="http://www.w3.org/2000/svg" xmlns:xlink="http://www.w3.org/1999/xlink" x="0px" y="0px"
	 viewBox="0 0 512 512" style="enable-background:new 0 0 512 512;" xml:space="preserve">
<path style="fill:#FEA832;" d="M467,226H347c-8.291,0-15-6.709-15-15v-90c0-8.291,6.709-15,15-15h68.379
	c19.395,0,36.548,12.363,42.686,30.762l0,0l23.159,69.492c1.538,4.585,0.762,9.609-2.051,13.521
	C476.346,223.686,471.819,226,467,226z"/>
<path style="fill:#555A66;" d="M362,196v-60h53.379c6.46,0,12.188,4.116,14.224,10.254L446.185,196H362z"/>
<path style="fill:#FF873C;" d="M512,241c0-24.814-20.186-45-45-45H347c-8.291,0-15,6.709-15,15v172.031L362,406h105
	c24.814,0,45-20.186,45-45v-15l-15-15l15-15v-30l-22.5-14.531L512,256V241z"/>
<path style="fill:#CDD2E1;" d="M422,61c0,8.399-6.599,15-15,15h-45v225c0,8.399-6.599,15-15,15H75c-3.9,0-7.8-1.5-10.499-4.501
	l-51.301-51C4.799,251.8,0,240.7,0,228.699V121c0-8.401,6.599-15,15-15h200.7l25.8-51.601c0.3-0.3,0.601-0.599,0.901-0.899
	c2.399-4.501,7.8-7.5,12.599-7.5h152C415.401,46,422,52.599,422,61z"/>
<path style="fill:#BEC3D2;" d="M422,61c0,8.399-6.599,15-15,15h-45v225c0,8.399-6.599,15-15,15h-62V46h122
	C415.401,46,422,52.599,422,61z"/>
<path style="fill:#555A66;" d="M45,286c-24.901,0-45,20.099-45,45v30c0,24.899,20.099,45,45,45h317V286H45z"/>
<path style="fill:#FEDB41;" d="M512,346h-45c-8.291,0-15-6.709-15-15s6.709-15,15-15h45V346z"/>
<g>
	<path style="fill:#9196AA;" d="M105,256c-8.291,0-15-6.709-15-15v-60c0-8.291,6.709-15,15-15s15,6.709,15,15v60
		C120,249.291,113.291,256,105,256z"/>
	<path style="fill:#9196AA;" d="M195,256c-8.291,0-15-6.709-15-15v-60c0-8.291,6.709-15,15-15s15,6.709,15,15v60
		C210,249.291,203.291,256,195,256z"/>
	<path style="fill:#9196AA;" d="M300,181v60c0,8.399-6.599,15-15,15s-15-6.601-15-15v-60c0-8.401,6.599-15,15-15
		S300,172.599,300,181z"/>
</g>
<path style="fill:#FEDB41;" d="M512,286h-75c-8.291,0-15-6.709-15-15s6.709-15,15-15h75V286z"/>
<path style="fill:#7E8596;" d="M285,256v-90c8.401,0,15,6.599,15,15v60C300,249.399,293.401,256,285,256z"/>
<g>
	<rect x="285" y="286" style="fill:#3C3A41;" width="77" height="120"/>
	<path style="fill:#3C3A41;" d="M392,466c-33.091,0-60-26.909-60-60s26.909-60,60-60s60,26.909,60,60S425.091,466,392,466z"/>
</g>
<path style="fill:#BEC3D2;" d="M392,436c-16.538,0-30-13.462-30-30s13.462-30,30-30s30,13.462,30,30S408.538,436,392,436z"/>
<path style="fill:#555A66;" d="M120,466c-33.091,0-60-26.909-60-60s26.909-60,60-60s60,26.909,60,60S153.091,466,120,466z"/>
<path style="fill:#CDD2E1;" d="M120,436c-16.538,0-30-13.462-30-30s13.462-30,30-30s30,13.462,30,30S136.538,436,120,436z"/>
<g>
</g>
<g>
</g>
<g>
</g>
<g>
</g>
<g>
</g>
<g>
</g>
<g>
</g>
<g>
</g>
<g>
</g>
<g>
</g>
<g>
</g>
<g>
</g>
<g>
</g>
<g>
</g>
<g>
</g>
</svg>
