<?xml version="1.0" encoding="iso-8859-1"?>
<!-- Generator: Adobe Illustrator 19.0.0, SVG Export Plug-In . SVG Version: 6.00 Build 0)  -->
<svg version="1.1" id="Capa_1" xmlns="http://www.w3.org/2000/svg" xmlns:xlink="http://www.w3.org/1999/xlink" x="0px" y="0px"
	 viewBox="0 0 512 512" style="enable-background:new 0 0 512 512;" xml:space="preserve">
<path style="fill:#9196AA;" d="M329.5,159.399l-46.8-93.6C271.601,44.2,250,31,226,31s-45.601,13.2-57.001,35.099l-46.5,93.3
	c-2.1,4.501-2.1,10.201,0.601,14.401c2.999,4.499,7.8,7.2,12.9,7.2h180c5.099,0,9.901-2.701,12.9-7.2
	C331.601,169.6,331.601,163.9,329.5,159.399z"/>
<path style="fill:#707789;" d="M391,181h-75c-5.684,0-10.869-3.208-13.418-8.291L265.99,99.511
	c-2.695-5.391-1.904-11.88,2.021-16.465C280.009,69.042,297.499,61,316,61c23.906,0,45.688,13.33,56.821,34.79l31.611,63.53
	c2.314,4.644,2.051,10.166-0.674,14.575C401.02,178.319,396.2,181,391,181z"/>
<path style="fill:#FEA832;" d="M451.399,169.6L440.9,211l-50.099,31.199H166L115.3,211l-21.899-58.801
	C94.9,151.599,96.7,151,98.5,151H437c4.501,0,9,2.1,12.001,5.7C451.7,160.6,452.601,165.399,451.399,169.6z"/>
<path style="fill:#7E8596;" d="M316,181h-90V31c24,0,45.601,13.2,56.7,34.799l46.8,93.6c2.1,4.501,2.1,10.201-0.601,14.401
	C325.901,178.299,321.099,181,316,181z"/>
<path style="fill:#FF873C;" d="M451.399,169.6L440.9,211l-50.099,31.199H226V151h211c4.501,0,9,2.1,12.001,5.7
	C451.7,160.6,452.601,165.399,451.399,169.6z"/>
<path style="fill:#FE8821;" d="M440.9,211c-10.201,38.699-1.8,6.599-47.701,185.4L226,359.5L166,346
	c-46.199-123.3-36.301-96.601-50.7-135H440.9z"/>
<path style="fill:#E5741A;" d="M440.9,211c-10.201,38.699-1.8,6.599-47.701,185.4L226,359.5V211H440.9z"/>
<path style="fill:#2B292C;" d="M437,481c-41.353,0-75-33.647-75-75c0-6.372,0.806-12.7,2.388-18.809
	C372.928,354.115,402.796,331,437,331c41.353,0,75,33.647,75,75S478.353,481,437,481z"/>
<path style="fill:#CDD2E1;" d="M437,451c-24.814,0-45-20.186-45-45c0-3.823,0.483-7.617,1.436-11.294
	C398.563,374.857,416.478,361,437,361c24.814,0,45,20.186,45,45S461.814,451,437,451z"/>
<path style="fill:#555A66;" d="M440.3,391.3L226,343.9l-48.9-10.8L97.301,120.099C90.7,102.7,73.9,91,55.3,91H15
	c-8.401,0-15,6.599-15,15c0,8.399,6.599,15,15,15h40.3c6,0,11.7,3.9,13.801,9.6L151,348.699V428.8c0,28.799,23.401,52.2,52.2,52.2
	c8.101,0,15.901-1.8,22.8-5.4c10.201-4.801,18.3-12.9,23.699-23.401L282.1,387.1l151.6,33.6c1.199,0.3,2.1,0.3,3.3,0.3
	c6.899,0,13.2-4.801,14.7-11.7C453.5,401.199,448.4,393.1,440.3,391.3z M226,432.1l-3.3,6.599c-3.6,7.5-11.1,12.301-19.501,12.301
	c-12.299,0-22.2-9.901-22.2-22.2v-64.2l45,10.199l26.1,5.7L226,432.1z"/>
<path style="fill:#3C3A41;" d="M451.7,409.3c-1.5,6.899-7.8,11.7-14.7,11.7c-1.199,0-2.1,0-3.3-0.3l-151.6-33.6l-32.401,65.099
	c-5.4,10.501-13.499,18.6-23.699,23.401v-43.5l26.1-51.601l-26.1-5.7V343.9l214.3,47.4C448.4,393.1,453.5,401.199,451.7,409.3z"/>
<g>
</g>
<g>
</g>
<g>
</g>
<g>
</g>
<g>
</g>
<g>
</g>
<g>
</g>
<g>
</g>
<g>
</g>
<g>
</g>
<g>
</g>
<g>
</g>
<g>
</g>
<g>
</g>
<g>
</g>
</svg>
